<svg width="23" height="23" viewBox="0 0 23 23" fill="none" xmlns="http://www.w3.org/2000/svg">
<path d="M9.10419 13.1771C9.10419 14.1067 9.82295 14.8542 10.7046 14.8542H12.5063C13.2729 14.8542 13.8959 14.2025 13.8959 13.3879C13.8959 12.5158 13.5125 12.1996 12.9471 11.9983L10.0625 10.9921C9.4971 10.7908 9.11378 10.4842 9.11378 9.60251C9.11378 8.79751 9.73668 8.13626 10.5033 8.13626H12.305C13.1867 8.13626 13.9054 8.88376 13.9054 9.81334" stroke="#1A202C" stroke-width="1.5" stroke-linecap="round" stroke-linejoin="round"/>
<path d="M11.5 7.1875V15.8125" stroke="#1A202C" stroke-width="1.5" stroke-linecap="round" stroke-linejoin="round"/>
<path d="M21.0834 11.5C21.0834 16.79 16.79 21.0833 11.5 21.0833C6.21002 21.0833 1.91669 16.79 1.91669 11.5C1.91669 6.21001 6.21002 1.91667 11.5 1.91667" stroke="#1A202C" stroke-width="1.5" stroke-linecap="round" stroke-linejoin="round"/>
<path d="M21.0833 5.75001V1.91667H17.25" stroke="#1A202C" stroke-width="1.5" stroke-linecap="round" stroke-linejoin="round"/>
<path d="M16.2917 6.70834L21.0834 1.91667" stroke="#1A202C" stroke-width="1.5" stroke-linecap="round" stroke-linejoin="round"/>
</svg>
